<svg width="102" height="110" viewBox="0 0 102 110" fill="none" xmlns="http://www.w3.org/2000/svg">
<g filter="url(#filter0_b_90_253)">
<path fill-rule="evenodd" clip-rule="evenodd" d="M0 12.4726C0 2.9994 10.1565 -3.00587 18.4571 1.55946L95.1167 43.7222C103.72 48.4542 103.72 60.8166 95.1167 65.5486L18.4571 107.711C10.1565 112.277 0 106.271 0 96.7982V12.4726Z" fill="url(#paint0_linear_90_253)" fill-opacity="0.3"/>
<path d="M0.5 12.4726C0.5 3.37971 10.2488 -2.38449 18.2162 1.99757L94.8758 44.1603C103.134 48.7023 103.134 60.5685 94.8758 65.1105L18.2162 107.273C10.2488 111.655 0.5 105.891 0.5 96.7982V12.4726Z" stroke="url(#paint1_linear_90_253)" stroke-opacity="0.5"/>
</g>
<defs>
<filter id="filter0_b_90_253" x="-12" y="-12" width="125.569" height="133.271" filterUnits="userSpaceOnUse" color-interpolation-filters="sRGB">
<feFlood flood-opacity="0" result="BackgroundImageFix"/>
<feGaussianBlur in="BackgroundImageFix" stdDeviation="6"/>
<feComposite in2="SourceAlpha" operator="in" result="effect1_backgroundBlur_90_253"/>
<feBlend mode="normal" in="SourceGraphic" in2="effect1_backgroundBlur_90_253" result="shape"/>
</filter>
<linearGradient id="paint0_linear_90_253" x1="50.7847" y1="0" x2="50.7847" y2="109.271" gradientUnits="userSpaceOnUse">
<stop offset="0.147231" stop-color="white"/>
<stop offset="0.42761" stop-color="white" stop-opacity="0.5"/>
<stop offset="1" stop-color="#1600FD" stop-opacity="0"/>
</linearGradient>
<linearGradient id="paint1_linear_90_253" x1="50.7847" y1="0" x2="50.7847" y2="109.271" gradientUnits="userSpaceOnUse">
<stop stop-color="white" stop-opacity="0"/>
<stop offset="1" stop-color="white"/>
</linearGradient>
</defs>
</svg>
